<?xml version="1.0" standalone="no"?><svg xmlns="http://www.w3.org/2000/svg" viewBox="0 0 1440 320"><path fill="#0099ff" fill-opacity="1" d="M0,288L13.3,256C26.7,224,53,160,80,154.7C106.7,149,133,203,160,218.7C186.7,235,213,213,240,176C266.7,139,293,85,320,69.3C346.7,53,373,75,400,112C426.7,149,453,203,480,218.7C506.7,235,533,213,560,213.3C586.7,213,613,235,640,229.3C666.7,224,693,192,720,165.3C746.7,139,773,117,800,112C826.7,107,853,117,880,149.3C906.7,181,933,235,960,224C986.7,213,1013,139,1040,128C1066.7,117,1093,171,1120,208C1146.7,245,1173,267,1200,245.3C1226.7,224,1253,160,1280,117.3C1306.7,75,1333,53,1360,74.7C1386.7,96,1413,160,1427,192L1440,224L1440,320L1426.7,320C1413.3,320,1387,320,1360,320C1333.3,320,1307,320,1280,320C1253.3,320,1227,320,1200,320C1173.3,320,1147,320,1120,320C1093.3,320,1067,320,1040,320C1013.3,320,987,320,960,320C933.3,320,907,320,880,320C853.3,320,827,320,800,320C773.3,320,747,320,720,320C693.3,320,667,320,640,320C613.3,320,587,320,560,320C533.3,320,507,320,480,320C453.3,320,427,320,400,320C373.3,320,347,320,320,320C293.3,320,267,320,240,320C213.3,320,187,320,160,320C133.3,320,107,320,80,320C53.3,320,27,320,13,320L0,320Z"></path></svg>